<svg xmlns="http://www.w3.org/2000/svg" version="1.1" viewBox="-5.0 -10.0 110.0 135.0">
 <path d="m15.707 82.293h68.586c2.207 0 4.3281-0.87891 5.8906-2.4414s2.4414-3.6836 2.4414-5.8945v-13.664c-0.011719-1.3867-0.37109-2.7461-1.043-3.9609l-10.332-19.25c-1.4492-2.6797-4.2422-4.3594-7.293-4.375h-11.781c-1.1484 0-2.082 0.93359-2.082 2.0859 0 1.1484 0.93359 2.082 2.082 2.082h11.719c1.5312 0 2.9414 0.83984 3.668 2.1875l9.7383 18.031h-18.945c-0.65625 0-1.2734 0.30859-1.668 0.83203l-3.832 5.1133-25.711 0.003907-3.8125-5.1172c-0.39062-0.52344-1.0078-0.83203-1.6641-0.83203h-18.969l9.7383-18.031c0.72656-1.3477 2.1367-2.1875 3.668-2.1875h11.719c1.1484 0 2.082-0.93359 2.082-2.082 0-1.1523-0.93359-2.0859-2.082-2.0859h-11.719c-3.0508 0.015625-5.8438 1.6953-7.293 4.375l-10.48 19.25c-0.66797 1.2148-1.0273 2.5742-1.0391 3.9609v13.664c0 2.2266 0.88672 4.3594 2.4688 5.9219 1.582 1.5664 3.7227 2.4336 5.9453 2.4141zm18.75-15.895v-0.003907c0.39453 0.52734 1.0117 0.83594 1.668 0.83594h27.77c0.65625 0 1.2734-0.30859 1.668-0.83594l3.832-5.1133h19.062v12.676c0 1.1055-0.4375 2.168-1.2188 2.9492s-1.8398 1.2188-2.9453 1.2188h-68.586c-2.3008 0-4.1641-1.8672-4.1641-4.168v-12.695h19.062zm17.625-46.605v31.031l7.293-7.293c0.8125-0.8125 2.1328-0.8125 2.9492 0 0.8125 0.8125 0.8125 2.1328 0 2.9492l-10.855 10.812c-0.8125 0.80469-2.125 0.80469-2.9375 0l-10.906-10.867c-0.8125-0.82812-0.80078-2.1602 0.027344-2.9727s2.1602-0.80078 2.9727 0.027344l7.293 7.293v-30.98c0-1.1523 0.92969-2.0859 2.082-2.0859s2.082 0.93359 2.082 2.0859z"/>
<text x="0.0" y="117.5" font-size="5.0" font-weight="bold" font-family="Arbeit Regular, Helvetica, Arial-Unicode, Arial, Sans-serif" fill="#000000">Created by Nina Karlos</text><text x="0.0" y="122.5" font-size="5.0" font-weight="bold" font-family="Arbeit Regular, Helvetica, Arial-Unicode, Arial, Sans-serif" fill="#000000">from Noun Project</text></svg>