<?xml version="1.0" encoding="UTF-8"?>
<svg id="Layer_2" data-name="Layer 2" xmlns="http://www.w3.org/2000/svg" viewBox="0 0 242.44 296.62">
  <defs>
    <style>
      .cls-1 {
        fill: #7afbe3;
      }

      .cls-1, .cls-2, .cls-3, .cls-4, .cls-5, .cls-6 {
        stroke-width: 0px;
      }

      .cls-2 {
        fill: #0089ff;
      }

      .cls-3 {
        fill: #000;
      }

      .cls-4 {
        fill: #ba88ff;
      }

      .cls-5 {
        fill: #6c7df3;
      }

      .cls-6 {
        fill: #54c1f9;
      }
    </style>
  </defs>
  <g id="Layer_1-2" data-name="Layer 1">
    <g>
      <g>
        <path class="cls-5" d="M161.53,164.93c-9.83,4.61-15.07,5.98-16.32,6.03-11.7.48-23.41.88-35.26.96-.82,0-1.13-1.14-.41-1.54,18.09-9.95,38.11-21.23,52.81-38.24,14.61-16.9,22.75-38.06,28.41-61.5.29-1.2-.1-2.2,2.53-.58,4.88,3.01,9.84,9,12.79,13.83,4.67,7.65,5.88,11.84,6.83,19,1.58,11.92-2.06,26.41-9.4,35.14-5.01,5.95-12.44,11.84-32.14,22.28"/>
        <path class="cls-2" d="M143.76,13.23c.1-.72.97-1.02,1.47-.5,8.17,8.44,15.91,17.18,21.56,27.61,13.98,25.79,11.07,51.2-3.14,75.57-4.07,6.98-10.82,15.24-16.93,20.83-13.47,12.31-27.75,21.05-44.5,29.84-.45.24-1.02.03-1.21-.44-5.32-13-10.62-25.95-15.65-38.25-.12-.3-.07-.63.13-.88,27.6-33.71,52.2-68.49,58.26-113.78Z"/>
        <path class="cls-6" d="M91.75.75c0-.72.97-1.03,1.43-.45,5.36,6.65,10.92,12.81,15.21,19.68,5.07,8.14,8.74,16.96,10.75,26.46,2.45,11.56.19,21.61-6.37,31.5-9.34,14.09-19.22,27.76-30.76,40.33-.28.31-.71.5-1.19.82-4.58-10.58-9.19-21.08-13.61-31.66-.39-.94.07-2.57.75-3.46,13.4-17.52,22.02-36.83,23.71-58.52.61-7.85.16-15.79.08-24.69Z"/>
        <path class="cls-1" d="M65.58,76.81c-.66.9-2.08.57-2.43-.49-3.87-11.89-10.76-22.19-10.26-35.54.46-12.41-1.49-23.59-8.78-34.37-.2-.3-1.39-1.95-1.61-2.7-.18-.63.44-1.2,1.05-.97,4.55,1.71,8.45,3.08,12.25,4.69,12.76,5.42,21.93,14.71,28.28,26.88.5.97.77,2.37.49,3.39-3.98,14.16-10.43,27.14-18.97,39.09,0,0,0,0,0,.01Z"/>
        <path class="cls-4" d="M171.53,166.58c21.51-8.28,40.24-22.62,55.23-41.52.39-.49,1.18-.29,1.26.34,1.6,12.58.57,24.97-6.1,36.42-.99,1.69-3.28,3.54-5.1,3.69-16.04,1.35-31.63,2.44-47.69,3.52-.16.01-.31-.47.04-.85.75-.82,1.33-1.2,2.36-1.6Z"/>
      </g>
      <g id="RfTCUX.tif">
        <g>
          <path class="cls-3" d="M36.59,29c-2,0-3.01-.16-3.45,1.68-.9,3.71-1.77,7.43-2.71,11.14C20.39,81.5,10.3,121.18.38,160.89c-.57,2.27-.52,5.09.31,7.25,16.04,42.13,32.24,84.21,48.41,126.29.24.62.57,1.21,1.01,2.12.45-.99.75-1.57.98-2.18,14.81-38.33,29.64-76.65,44.36-115.01.5-1.29.37-3.15-.15-4.46-18.28-45.99-36.39-89.75-54.74-135.72-.35-.89-1.69-4.14-2-5"/>
          <path class="cls-3" d="M219.59,173c-14.56.82-12.23.43-26.43,1.2-28.88,1.56-57.76,3.11-86.64,4.61-1.8.09-2.73.66-3.4,2.44-11.92,31.44-23.91,62.86-35.89,94.28-2.54,6.68-5.07,13.36-7.64,20.16-.16.43.15.89.6.9,1.62.02,3,.06,4.38-.02,15.34-.9,30.67-1.86,46.01-2.76,25.26-1.49,50.52-2.98,75.79-4.39,1.84-.1,2.72-.8,3.46-2.41,7.98-17.43,16.01-34.84,24.04-52.24,9.42-20.42,18.83-40.85,28.32-61.23.4-.87.4-1.53-.6-1.53"/>
        </g>
      </g>
    </g>
  </g>
</svg>