<svg xmlns="http://www.w3.org/2000/svg" xmlns:xlink="http://www.w3.org/1999/xlink" version="1.1" x="0px" y="0px" viewBox="0 0 1024 1280" style="enable-background:new 0 0 1024 1024;" xml:space="preserve"><g><path d="M896,219h-39v-43c0-8.28-6.72-15-15-15H607.78c-34.62,0-67.68,16.53-88.45,44.23L512,215l-7.33-9.77   C483.9,177.53,450.84,161,416.22,161H182c-8.28,0-15,6.72-15,15v43h-39c-2.76,0-5,2.24-5,5v576c0,2.76,2.24,5,5,5h246.31   c16.87,0,33.64,4.2,48.5,12.16c14.87,7.95,27.67,19.58,37.03,33.61c0.93,1.39,2.49,2.23,4.16,2.23h96c1.67,0,3.23-0.84,4.16-2.23   c19.1-28.66,51.08-45.77,85.53-45.77H896c2.76,0,5-2.24,5-5V224C901,221.24,898.76,219,896,219z M484.78,388.78   C509.15,364.42,541.54,351,576,351s66.85,13.42,91.22,37.78C691.58,413.15,705,445.54,705,480s-13.42,66.85-37.78,91.22   C642.85,595.58,610.46,609,576,609s-66.85-13.42-91.22-37.78C460.42,546.85,447,514.46,447,480S460.42,413.15,484.78,388.78z    M576,639c37.43,0,72.88-12.85,101.33-36.46l26.27,26.27c-3.19,6.41-4.89,13.52-4.89,20.9c0,12.56,4.89,24.36,13.77,33.23   L760.53,731H623.59c-32.02,0-62.13,12.47-84.78,35.11L527,777.93V631.33C542.62,636.38,559.11,639,576,639z M825.62,729.61   c-3.22,3.21-7.49,4.98-12.03,4.98c-4.54,0-8.81-1.77-12.02-4.98l-67.88-67.89c-3.21-3.21-4.98-7.47-4.98-12.01   s1.77-8.81,4.99-12.03c3.21-3.21,7.47-4.98,12.01-4.98c4.54,0,8.81,1.77,12.02,4.99l67.88,67.88   C832.23,712.19,832.24,722.98,825.62,729.61z M543.33,223.23c15.13-20.18,39.23-32.23,64.45-32.23H827v33v440.53l-48.06-48.06   c-8.88-8.88-20.69-13.77-33.24-13.77c-7.38,0-14.48,1.7-20.9,4.89l-26.26-26.26c13.41-16.16,23.34-34.57,29.43-54.33H768v-30h-33.9   c0.59-5.61,0.9-11.28,0.9-17c0-22.78-4.76-44.82-13.81-65H768v-30h-64.47c-4.57-6.11-9.61-11.94-15.1-17.43   C658.4,337.54,618.47,321,576,321c-16.89,0-33.38,2.62-49,7.67V245L543.33,223.23z M197,191h219.22   c25.22,0,49.32,12.05,64.45,32.23L497,245v96.94c-12.08,6.94-23.32,15.51-33.43,25.63c-5.68,5.68-10.88,11.72-15.57,18.05V385H336   v30h94.81c-9.04,20.18-13.81,42.22-13.81,65c0,5.72,0.31,11.39,0.9,17H256v30h168.03c7.53,24.44,20.94,46.83,39.54,65.43   c10.11,10.11,21.35,18.69,33.43,25.63v159.87l-11.81-11.81C462.54,743.47,432.43,731,400.41,731H197V224V191z"/><rect x="256" y="273" width="192" height="30"/><rect x="256" y="385" width="48" height="30"/><rect x="256" y="609" width="128" height="30"/><rect x="416" y="609" width="32" height="30"/><rect x="576" y="273" width="192" height="30"/><path d="M576,403.36v-30c-58.8,0-106.64,47.84-106.64,106.64h30C499.36,437.74,533.74,403.36,576,403.36z"/></g><text x="0" y="1039" fill="#000000" font-size="5px" font-weight="bold" font-family="'Helvetica Neue', Helvetica, Arial-Unicode, Arial, Sans-serif">Created by IconPai</text><text x="0" y="1044" fill="#000000" font-size="5px" font-weight="bold" font-family="'Helvetica Neue', Helvetica, Arial-Unicode, Arial, Sans-serif">from the Noun Project</text></svg>