<svg xmlns="http://www.w3.org/2000/svg" version="1.1" viewBox="-5.0 -10.0 110.0 135.0">
 <path d="m92.211 48.438h-57.828v-3.125c0-3.4492-2.8047-6.25-6.25-6.25-3.4492 0-6.25 2.8047-6.25 6.25v3.125h-14.07c-2.0352 0.027344-2.0703 3.0898 0 3.125h14.066v3.125c0 3.4492 2.8047 6.25 6.25 6.25 3.4492 0 6.25-2.8047 6.25-6.25v-3.125h57.828c2.0078-0.019531 2.0938-3.0898 0-3.125zm-60.953 6.25c-0.10937 4.1172-6.1445 4.125-6.25 0v-9.3789c0-1.7227 1.4023-3.125 3.125-3.125 1.7227 0 3.125 1.4023 3.125 3.125z"/>
 <path d="m92.211 73.445h-14.066v-3.125c-0.26172-8.2617-12.242-8.2617-12.504 0v3.125h-57.828c-0.86328 0-1.5625 0.69922-1.5625 1.5625 0 0.86328 0.69922 1.5625 1.5625 1.5625h57.828v3.125c0 3.4492 2.8047 6.25 6.25 6.25 3.4492 0 6.25-2.8047 6.25-6.25v-3.125h14.066c2.0352-0.027343 2.0703-3.0898 0-3.125zm-17.191 6.25c-0.10938 4.1172-6.1445 4.125-6.25 0v-9.3789c0-1.7227 1.4023-3.125 3.125-3.125 1.7227 0 3.125 1.4023 3.125 3.125z"/>
 <path d="m7.8125 26.555h57.828v3.125c0 3.4492 2.8047 6.25 6.25 6.25 3.4492 0 6.25-2.8047 6.25-6.25v-3.125h14.066c2.0352-0.027344 2.0703-3.0898 0-3.125h-14.066v-3.125c0-3.4492-2.8047-6.25-6.25-6.25-3.4492 0-6.25 2.8047-6.25 6.25v3.125h-57.828c-2.0078 0.019531-2.0938 3.0898 0 3.125zm60.953-6.25c0.10938-4.1172 6.1445-4.125 6.25 0v9.3789c0 1.7227-1.4023 3.125-3.125 3.125s-3.125-1.4023-3.125-3.125z"/>
<text x="0.0" y="117.5" font-size="5.0" font-weight="bold" font-family="Arbeit Regular, Helvetica, Arial-Unicode, Arial, Sans-serif" fill="#000000">Created by Febri Ardianto</text><text x="0.0" y="122.5" font-size="5.0" font-weight="bold" font-family="Arbeit Regular, Helvetica, Arial-Unicode, Arial, Sans-serif" fill="#000000">from Noun Project</text></svg>